<mxfile host="app.diagrams.net" agent="Mozilla/5.0 (Windows NT 10.0; Win64; x64) AppleWebKit/537.36 (KHTML, like Gecko) Chrome/128.0.0.0 Safari/537.36" version="24.7.7" pages="4">
  <diagram name="Development" id="58cdce13-f638-feb5-8d6f-7d28b1aa9fa0">
    <mxGraphModel dx="1434" dy="738" grid="0" gridSize="10" guides="1" tooltips="1" connect="1" arrows="1" fold="1" page="1" pageScale="1" pageWidth="1100" pageHeight="850" background="none" math="0" shadow="0">
      <root>
        <mxCell id="0" />
        <mxCell id="1" parent="0" />
        <mxCell id="BRbZvfWua0Ed-t2ezXg7-1" value="System Description:&amp;nbsp;&lt;div&gt;&lt;ul&gt;&lt;li&gt;State machine for traffic light system for a basic 4-way intersection with traffic lights&lt;/li&gt;&lt;li&gt;One road is designated as the primary road and is expected to have majority of the traffic flow (e.g. highway road like El Camino Real i.e. SR-82 )&lt;/li&gt;&lt;li&gt;Second road is designated as secondary road and is expected to have minor traffic flow (e.g. neighborhood road)&lt;/li&gt;&lt;li&gt;T_st corresponds to the time in existing state&lt;/li&gt;&lt;/ul&gt;&lt;/div&gt;" style="text;html=1;align=left;verticalAlign=middle;whiteSpace=wrap;rounded=0;" parent="1" vertex="1">
          <mxGeometry x="130" y="20" width="850" height="100" as="geometry" />
        </mxCell>
        <mxCell id="y4a0M32hPEMpArKKtxwn-1" value="" style="edgeStyle=orthogonalEdgeStyle;html=1;verticalAlign=bottom;endArrow=open;endSize=8;strokeColor=#ff0000;rounded=0;entryX=0.599;entryY=0;entryDx=0;entryDy=0;entryPerimeter=0;exitX=0.514;exitY=1;exitDx=0;exitDy=0;exitPerimeter=0;" parent="1" source="y4a0M32hPEMpArKKtxwn-34" target="y4a0M32hPEMpArKKtxwn-4" edge="1">
          <mxGeometry relative="1" as="geometry">
            <mxPoint x="643" y="470" as="targetPoint" />
            <mxPoint x="710" y="450" as="sourcePoint" />
          </mxGeometry>
        </mxCell>
        <mxCell id="y4a0M32hPEMpArKKtxwn-2" value="FAULT" style="edgeLabel;html=1;align=center;verticalAlign=middle;resizable=0;points=[];" parent="y4a0M32hPEMpArKKtxwn-1" vertex="1" connectable="0">
          <mxGeometry relative="1" as="geometry">
            <mxPoint as="offset" />
          </mxGeometry>
        </mxCell>
        <mxCell id="y4a0M32hPEMpArKKtxwn-3" value="FAULT Removed" style="edgeStyle=orthogonalEdgeStyle;html=1;verticalAlign=bottom;endArrow=open;endSize=8;strokeColor=#ff0000;rounded=0;entryX=0.5;entryY=1;entryDx=0;entryDy=0;exitX=-0.004;exitY=0.498;exitDx=0;exitDy=0;exitPerimeter=0;" parent="1" source="y4a0M32hPEMpArKKtxwn-4" target="y4a0M32hPEMpArKKtxwn-14" edge="1">
          <mxGeometry relative="1" as="geometry">
            <mxPoint x="180" y="270" as="targetPoint" />
            <mxPoint x="653" y="431" as="sourcePoint" />
          </mxGeometry>
        </mxCell>
        <mxCell id="y4a0M32hPEMpArKKtxwn-4" value="Flashing" style="shape=umlFrame;whiteSpace=wrap;html=1;pointerEvents=0;" parent="1" vertex="1">
          <mxGeometry x="320" y="510" width="680" height="210" as="geometry" />
        </mxCell>
        <mxCell id="y4a0M32hPEMpArKKtxwn-5" value="Timer Expired" style="edgeStyle=orthogonalEdgeStyle;rounded=1;orthogonalLoop=1;jettySize=auto;html=1;curved=0;fillColor=#e51400;strokeColor=#ff0000;entryX=0.5;entryY=0;entryDx=0;entryDy=0;exitX=0.5;exitY=0;exitDx=0;exitDy=0;" parent="1" source="y4a0M32hPEMpArKKtxwn-6" target="y4a0M32hPEMpArKKtxwn-7" edge="1">
          <mxGeometry relative="1" as="geometry">
            <mxPoint x="791" y="595" as="targetPoint" />
          </mxGeometry>
        </mxCell>
        <mxCell id="y4a0M32hPEMpArKKtxwn-6" value="Primary Road Yellow&lt;div&gt;Secondary Road Red&lt;/div&gt;" style="rounded=1;whiteSpace=wrap;html=1;arcSize=24;fillColor=#ffffc0;strokeColor=#ff0000;shadow=0;comic=0;labelBackgroundColor=none;fontFamily=Verdana;fontSize=12;fontColor=#000000;align=center;" parent="1" vertex="1">
          <mxGeometry x="521" y="550" width="150" height="90" as="geometry" />
        </mxCell>
        <mxCell id="y4a0M32hPEMpArKKtxwn-7" value="Both Roads Off" style="rounded=1;whiteSpace=wrap;html=1;arcSize=24;fillColor=#ffffc0;strokeColor=#ff0000;shadow=0;comic=0;labelBackgroundColor=none;fontFamily=Verdana;fontSize=12;fontColor=#000000;align=center;" parent="1" vertex="1">
          <mxGeometry x="821" y="550" width="150" height="90" as="geometry" />
        </mxCell>
        <mxCell id="y4a0M32hPEMpArKKtxwn-8" value="Timer Expired" style="edgeStyle=orthogonalEdgeStyle;rounded=1;orthogonalLoop=1;jettySize=auto;html=1;curved=0;fillColor=#e51400;strokeColor=#ff0000;entryX=0.5;entryY=1;entryDx=0;entryDy=0;exitX=0.5;exitY=1;exitDx=0;exitDy=0;" parent="1" source="y4a0M32hPEMpArKKtxwn-7" target="y4a0M32hPEMpArKKtxwn-6" edge="1">
          <mxGeometry relative="1" as="geometry">
            <mxPoint x="606" y="560" as="sourcePoint" />
            <mxPoint x="906" y="560" as="targetPoint" />
          </mxGeometry>
        </mxCell>
        <mxCell id="y4a0M32hPEMpArKKtxwn-9" value="" style="ellipse;html=1;shape=startState;fillColor=#000000;strokeColor=#ff0000;" parent="1" vertex="1">
          <mxGeometry x="340" y="560" width="30" height="30" as="geometry" />
        </mxCell>
        <mxCell id="y4a0M32hPEMpArKKtxwn-10" value="" style="edgeStyle=orthogonalEdgeStyle;html=1;verticalAlign=bottom;endArrow=open;endSize=8;strokeColor=#ff0000;rounded=1;entryX=0;entryY=0.5;entryDx=0;entryDy=0;exitX=0.5;exitY=1;exitDx=0;exitDy=0;curved=0;" parent="1" source="y4a0M32hPEMpArKKtxwn-9" target="y4a0M32hPEMpArKKtxwn-11" edge="1">
          <mxGeometry relative="1" as="geometry">
            <mxPoint x="410" y="620" as="targetPoint" />
          </mxGeometry>
        </mxCell>
        <mxCell id="y4a0M32hPEMpArKKtxwn-11" value="Both Red" style="rounded=1;whiteSpace=wrap;html=1;arcSize=24;fillColor=#ffffc0;strokeColor=#ff0000;shadow=0;comic=0;labelBackgroundColor=none;fontFamily=Verdana;fontSize=12;fontColor=#000000;align=center;" parent="1" vertex="1">
          <mxGeometry x="400" y="580" width="70" height="50" as="geometry" />
        </mxCell>
        <mxCell id="y4a0M32hPEMpArKKtxwn-12" value="" style="edgeStyle=orthogonalEdgeStyle;html=1;verticalAlign=bottom;endArrow=open;endSize=8;strokeColor=#ff0000;rounded=1;entryX=-0.02;entryY=0.613;entryDx=0;entryDy=0;exitX=1;exitY=0.5;exitDx=0;exitDy=0;curved=0;entryPerimeter=0;" parent="1" source="y4a0M32hPEMpArKKtxwn-11" target="y4a0M32hPEMpArKKtxwn-6" edge="1">
          <mxGeometry relative="1" as="geometry">
            <mxPoint x="410" y="615" as="targetPoint" />
            <mxPoint x="365" y="600" as="sourcePoint" />
          </mxGeometry>
        </mxCell>
        <mxCell id="y4a0M32hPEMpArKKtxwn-13" value="" style="ellipse;html=1;shape=startState;fillColor=#000000;strokeColor=#ff0000;rounded=1;shadow=0;comic=0;labelBackgroundColor=none;fontFamily=Verdana;fontSize=12;fontColor=#000000;align=center;direction=south;" parent="1" vertex="1">
          <mxGeometry x="24" y="225" width="30" height="30" as="geometry" />
        </mxCell>
        <mxCell id="y4a0M32hPEMpArKKtxwn-14" value="Initialize" style="rounded=1;whiteSpace=wrap;html=1;arcSize=24;fillColor=#ffffc0;strokeColor=#ff0000;shadow=0;comic=0;labelBackgroundColor=none;fontFamily=Verdana;fontSize=12;fontColor=#000000;align=center;" parent="1" vertex="1">
          <mxGeometry x="75" y="210" width="63" height="60" as="geometry" />
        </mxCell>
        <mxCell id="y4a0M32hPEMpArKKtxwn-15" value="" style="edgeStyle=orthogonalEdgeStyle;html=1;exitX=1;exitY=0.5;labelBackgroundColor=none;endArrow=open;endSize=8;strokeColor=#ff0000;fontFamily=Verdana;fontSize=12;align=center;exitDx=0;exitDy=0;entryX=-0.004;entryY=0.333;entryDx=0;entryDy=0;entryPerimeter=0;" parent="1" source="y4a0M32hPEMpArKKtxwn-40" target="y4a0M32hPEMpArKKtxwn-34" edge="1">
          <mxGeometry x="-0.0991" y="-16" relative="1" as="geometry">
            <Array as="points">
              <mxPoint x="280" y="240" />
              <mxPoint x="280" y="240" />
            </Array>
            <mxPoint as="offset" />
          </mxGeometry>
        </mxCell>
        <mxCell id="y4a0M32hPEMpArKKtxwn-16" value="NO &amp;amp;&amp;nbsp;&lt;div style=&quot;font-family: Verdana; font-size: 12px; background-color: rgb(251, 251, 251);&quot;&gt;&lt;span style=&quot;font-family: Helvetica; font-size: 11px; background-color: rgb(255, 255, 255);&quot;&gt;T_st &amp;gt; T_init&lt;/span&gt;&lt;/div&gt;" style="edgeLabel;html=1;align=center;verticalAlign=middle;resizable=0;points=[];" parent="y4a0M32hPEMpArKKtxwn-15" vertex="1" connectable="0">
          <mxGeometry x="0.4595" relative="1" as="geometry">
            <mxPoint x="-32" as="offset" />
          </mxGeometry>
        </mxCell>
        <mxCell id="y4a0M32hPEMpArKKtxwn-17" style="edgeStyle=orthogonalEdgeStyle;html=1;labelBackgroundColor=none;endArrow=open;endSize=8;strokeColor=#ff0000;fontFamily=Verdana;fontSize=12;align=left;" parent="1" source="y4a0M32hPEMpArKKtxwn-13" target="y4a0M32hPEMpArKKtxwn-14" edge="1">
          <mxGeometry relative="1" as="geometry" />
        </mxCell>
        <mxCell id="y4a0M32hPEMpArKKtxwn-18" value="Primary Road Green" style="rounded=1;whiteSpace=wrap;html=1;arcSize=24;fillColor=#ffffc0;strokeColor=#ff0000;shadow=0;comic=0;labelBackgroundColor=none;fontFamily=Verdana;fontSize=10;fontColor=#000000;align=center;" parent="1" vertex="1">
          <mxGeometry x="696" y="210" width="80" height="60" as="geometry" />
        </mxCell>
        <mxCell id="y4a0M32hPEMpArKKtxwn-19" value="Primary Road Yellow" style="rounded=1;whiteSpace=wrap;html=1;arcSize=24;fillColor=#ffffc0;strokeColor=#ff0000;shadow=0;comic=0;labelBackgroundColor=none;fontFamily=Verdana;fontSize=10;fontColor=#000000;align=center;" parent="1" vertex="1">
          <mxGeometry x="1004" y="210" width="71" height="60" as="geometry" />
        </mxCell>
        <mxCell id="y4a0M32hPEMpArKKtxwn-20" value="Both Roads Red" style="rounded=1;whiteSpace=wrap;html=1;arcSize=24;fillColor=#ffffc0;strokeColor=#ff0000;shadow=0;comic=0;labelBackgroundColor=none;fontFamily=Verdana;fontSize=12;fontColor=#000000;align=center;" parent="1" vertex="1">
          <mxGeometry x="390" y="210" width="79" height="60" as="geometry" />
        </mxCell>
        <mxCell id="y4a0M32hPEMpArKKtxwn-21" style="edgeStyle=orthogonalEdgeStyle;html=1;exitX=1;exitY=0.5;labelBackgroundColor=none;endArrow=open;endSize=8;strokeColor=#ff0000;fontFamily=Verdana;fontSize=12;align=left;exitDx=0;exitDy=0;entryX=0;entryY=0.5;entryDx=0;entryDy=0;" parent="1" source="y4a0M32hPEMpArKKtxwn-20" target="y4a0M32hPEMpArKKtxwn-31" edge="1">
          <mxGeometry relative="1" as="geometry">
            <Array as="points" />
            <mxPoint x="605" y="240" as="sourcePoint" />
            <mxPoint x="515" y="250" as="targetPoint" />
          </mxGeometry>
        </mxCell>
        <mxCell id="y4a0M32hPEMpArKKtxwn-22" value="T_st &amp;gt; T1" style="edgeLabel;html=1;align=center;verticalAlign=middle;resizable=0;points=[];" parent="y4a0M32hPEMpArKKtxwn-21" vertex="1" connectable="0">
          <mxGeometry relative="1" as="geometry">
            <mxPoint y="10" as="offset" />
          </mxGeometry>
        </mxCell>
        <mxCell id="y4a0M32hPEMpArKKtxwn-23" style="edgeStyle=orthogonalEdgeStyle;html=1;exitX=0.5;exitY=0;labelBackgroundColor=none;endArrow=open;endSize=8;strokeColor=#ff0000;fontFamily=Verdana;fontSize=12;align=left;exitDx=0;exitDy=0;entryX=0.5;entryY=0;entryDx=0;entryDy=0;" parent="1" source="y4a0M32hPEMpArKKtxwn-19" target="y4a0M32hPEMpArKKtxwn-20" edge="1">
          <mxGeometry relative="1" as="geometry">
            <Array as="points">
              <mxPoint x="1040" y="180" />
              <mxPoint x="430" y="180" />
            </Array>
            <mxPoint x="485" y="270" as="sourcePoint" />
            <mxPoint x="545" y="210" as="targetPoint" />
          </mxGeometry>
        </mxCell>
        <mxCell id="y4a0M32hPEMpArKKtxwn-24" value="T_st &amp;gt; T6" style="edgeLabel;html=1;align=center;verticalAlign=middle;resizable=0;points=[];" parent="y4a0M32hPEMpArKKtxwn-23" vertex="1" connectable="0">
          <mxGeometry relative="1" as="geometry">
            <mxPoint as="offset" />
          </mxGeometry>
        </mxCell>
        <mxCell id="y4a0M32hPEMpArKKtxwn-25" value="Secondary Road Green" style="rounded=1;whiteSpace=wrap;html=1;arcSize=24;fillColor=#ffffc0;strokeColor=#ff0000;shadow=0;comic=0;labelBackgroundColor=none;fontFamily=Verdana;fontSize=10;fontColor=#000000;align=center;" parent="1" vertex="1">
          <mxGeometry x="833" y="320" width="73" height="60" as="geometry" />
        </mxCell>
        <mxCell id="y4a0M32hPEMpArKKtxwn-26" value="Secondary Road Yellow" style="rounded=1;whiteSpace=wrap;html=1;arcSize=24;fillColor=#ffffc0;strokeColor=#ff0000;shadow=0;comic=0;labelBackgroundColor=none;fontFamily=Verdana;fontSize=10;fontColor=#000000;align=center;" parent="1" vertex="1">
          <mxGeometry x="997" y="320" width="74" height="60" as="geometry" />
        </mxCell>
        <mxCell id="y4a0M32hPEMpArKKtxwn-27" style="edgeStyle=orthogonalEdgeStyle;html=1;exitX=1;exitY=0.5;labelBackgroundColor=none;endArrow=open;endSize=8;strokeColor=#ff0000;fontFamily=Verdana;fontSize=12;align=left;exitDx=0;exitDy=0;entryX=0;entryY=0.5;entryDx=0;entryDy=0;" parent="1" source="y4a0M32hPEMpArKKtxwn-25" target="y4a0M32hPEMpArKKtxwn-26" edge="1">
          <mxGeometry relative="1" as="geometry">
            <Array as="points" />
            <mxPoint x="559" y="370" as="sourcePoint" />
            <mxPoint x="609" y="370" as="targetPoint" />
          </mxGeometry>
        </mxCell>
        <mxCell id="y4a0M32hPEMpArKKtxwn-28" value="T_st &amp;gt; T5" style="edgeLabel;html=1;align=center;verticalAlign=middle;resizable=0;points=[];" parent="y4a0M32hPEMpArKKtxwn-27" vertex="1" connectable="0">
          <mxGeometry relative="1" as="geometry">
            <mxPoint as="offset" />
          </mxGeometry>
        </mxCell>
        <mxCell id="y4a0M32hPEMpArKKtxwn-29" style="edgeStyle=orthogonalEdgeStyle;html=1;exitX=0.5;exitY=1;labelBackgroundColor=none;endArrow=open;endSize=8;strokeColor=#ff0000;fontFamily=Verdana;fontSize=12;align=left;exitDx=0;exitDy=0;entryX=0.5;entryY=1;entryDx=0;entryDy=0;" parent="1" source="y4a0M32hPEMpArKKtxwn-26" target="y4a0M32hPEMpArKKtxwn-20" edge="1">
          <mxGeometry relative="1" as="geometry">
            <Array as="points" />
            <mxPoint x="550" y="260" as="sourcePoint" />
            <mxPoint x="600" y="260" as="targetPoint" />
          </mxGeometry>
        </mxCell>
        <mxCell id="y4a0M32hPEMpArKKtxwn-30" value="T_st &amp;gt; T7" style="edgeLabel;html=1;align=center;verticalAlign=middle;resizable=0;points=[];" parent="y4a0M32hPEMpArKKtxwn-29" vertex="1" connectable="0">
          <mxGeometry relative="1" as="geometry">
            <mxPoint as="offset" />
          </mxGeometry>
        </mxCell>
        <mxCell id="y4a0M32hPEMpArKKtxwn-31" value="&lt;font style=&quot;font-size: 10px;&quot;&gt;roadForNextGrnLight?&lt;/font&gt;" style="rhombus;whiteSpace=wrap;html=1;fontColor=#000000;fillColor=#ffffc0;strokeColor=#ff0000;" parent="1" vertex="1">
          <mxGeometry x="507" y="200" width="127" height="80" as="geometry" />
        </mxCell>
        <mxCell id="y4a0M32hPEMpArKKtxwn-32" value="&lt;span style=&quot;text-align: center;&quot;&gt;T_st &amp;gt; T2&lt;/span&gt;" style="edgeStyle=orthogonalEdgeStyle;html=1;align=left;verticalAlign=bottom;endArrow=open;endSize=8;strokeColor=#ff0000;rounded=0;entryX=0;entryY=0.5;entryDx=0;entryDy=0;" parent="1" source="y4a0M32hPEMpArKKtxwn-31" target="y4a0M32hPEMpArKKtxwn-18" edge="1">
          <mxGeometry x="-1" relative="1" as="geometry">
            <mxPoint x="755" y="240" as="targetPoint" />
          </mxGeometry>
        </mxCell>
        <mxCell id="y4a0M32hPEMpArKKtxwn-33" value="&lt;span style=&quot;text-align: center;&quot;&gt;T_st &amp;gt; T3&lt;/span&gt;" style="edgeStyle=orthogonalEdgeStyle;html=1;align=left;verticalAlign=top;endArrow=open;endSize=8;strokeColor=#ff0000;rounded=1;entryX=0;entryY=0.5;entryDx=0;entryDy=0;curved=0;exitX=0.5;exitY=1;exitDx=0;exitDy=0;" parent="1" source="y4a0M32hPEMpArKKtxwn-31" target="y4a0M32hPEMpArKKtxwn-25" edge="1">
          <mxGeometry x="-0.6341" y="10" relative="1" as="geometry">
            <mxPoint x="685" y="320" as="targetPoint" />
            <Array as="points">
              <mxPoint x="571" y="350" />
            </Array>
            <mxPoint as="offset" />
          </mxGeometry>
        </mxCell>
        <mxCell id="y4a0M32hPEMpArKKtxwn-34" value="Normal" style="shape=umlFrame;whiteSpace=wrap;html=1;pointerEvents=0;" parent="1" vertex="1">
          <mxGeometry x="340" y="150" width="750" height="270" as="geometry" />
        </mxCell>
        <mxCell id="y4a0M32hPEMpArKKtxwn-35" value="" style="ellipse;html=1;shape=startState;fillColor=#000000;strokeColor=#ff0000;" parent="1" vertex="1">
          <mxGeometry x="350" y="190" width="30" height="30" as="geometry" />
        </mxCell>
        <mxCell id="y4a0M32hPEMpArKKtxwn-36" value="" style="edgeStyle=orthogonalEdgeStyle;html=1;verticalAlign=bottom;endArrow=open;endSize=8;strokeColor=#ff0000;rounded=1;entryX=0;entryY=0.5;entryDx=0;entryDy=0;exitX=0.5;exitY=1;exitDx=0;exitDy=0;curved=0;" parent="1" source="y4a0M32hPEMpArKKtxwn-35" target="y4a0M32hPEMpArKKtxwn-20" edge="1">
          <mxGeometry relative="1" as="geometry">
            <mxPoint x="395" y="299" as="targetPoint" />
          </mxGeometry>
        </mxCell>
        <mxCell id="y4a0M32hPEMpArKKtxwn-37" value="t" style="edgeStyle=orthogonalEdgeStyle;html=1;exitX=1;exitY=0.5;labelBackgroundColor=none;endArrow=open;endSize=8;strokeColor=#ff0000;fontFamily=Verdana;fontSize=12;align=left;exitDx=0;exitDy=0;entryX=0;entryY=0.5;entryDx=0;entryDy=0;" parent="1" source="y4a0M32hPEMpArKKtxwn-18" target="KFxmh9VQ-1izr3dkvZIK-1" edge="1">
          <mxGeometry relative="1" as="geometry">
            <Array as="points" />
            <mxPoint x="885" y="360" as="sourcePoint" />
            <mxPoint x="996" y="360" as="targetPoint" />
          </mxGeometry>
        </mxCell>
        <mxCell id="y4a0M32hPEMpArKKtxwn-38" value="T_st &amp;gt; T4" style="edgeLabel;html=1;align=center;verticalAlign=middle;resizable=0;points=[];fontSize=9;" parent="y4a0M32hPEMpArKKtxwn-37" vertex="1" connectable="0">
          <mxGeometry relative="1" as="geometry">
            <mxPoint x="-8" as="offset" />
          </mxGeometry>
        </mxCell>
        <mxCell id="y4a0M32hPEMpArKKtxwn-39" value="" style="edgeStyle=orthogonalEdgeStyle;html=1;exitX=1;exitY=0.5;labelBackgroundColor=none;endArrow=open;endSize=8;strokeColor=#ff0000;fontFamily=Verdana;fontSize=12;align=left;exitDx=0;exitDy=0;entryX=0;entryY=0.5;entryDx=0;entryDy=0;" parent="1" source="y4a0M32hPEMpArKKtxwn-14" target="y4a0M32hPEMpArKKtxwn-40" edge="1">
          <mxGeometry x="-0.4397" relative="1" as="geometry">
            <Array as="points" />
            <mxPoint x="-1" as="offset" />
            <mxPoint x="180" y="240" as="sourcePoint" />
            <mxPoint x="317" y="240" as="targetPoint" />
          </mxGeometry>
        </mxCell>
        <mxCell id="y4a0M32hPEMpArKKtxwn-40" value="&lt;font style=&quot;font-size: 10px;&quot;&gt;FAULT?&lt;/font&gt;" style="rhombus;whiteSpace=wrap;html=1;fontColor=#000000;fillColor=#ffffc0;strokeColor=#ff0000;" parent="1" vertex="1">
          <mxGeometry x="160" y="220" width="66" height="40" as="geometry" />
        </mxCell>
        <mxCell id="y4a0M32hPEMpArKKtxwn-41" value="&lt;span style=&quot;font-family: Helvetica; font-size: 11px; text-align: center; background-color: rgb(255, 255, 255);&quot;&gt;YES&lt;/span&gt;" style="edgeStyle=orthogonalEdgeStyle;html=1;exitX=0.5;exitY=1;labelBackgroundColor=none;endArrow=open;endSize=8;strokeColor=#ff0000;fontFamily=Verdana;fontSize=12;align=left;exitDx=0;exitDy=0;entryX=-0.003;entryY=0.267;entryDx=0;entryDy=0;entryPerimeter=0;" parent="1" source="y4a0M32hPEMpArKKtxwn-40" target="y4a0M32hPEMpArKKtxwn-4" edge="1">
          <mxGeometry x="-0.4147" y="-14" relative="1" as="geometry">
            <Array as="points">
              <mxPoint x="193" y="566" />
            </Array>
            <mxPoint as="offset" />
            <mxPoint x="257" y="250" as="sourcePoint" />
            <mxPoint x="347" y="250" as="targetPoint" />
          </mxGeometry>
        </mxCell>
        <mxCell id="KFxmh9VQ-1izr3dkvZIK-1" value="&lt;font style=&quot;font-size: 8px;&quot;&gt;vehicleWaitingInSecRoad?&lt;/font&gt;" style="rhombus;whiteSpace=wrap;html=1;fontColor=#000000;fillColor=#ffffc0;strokeColor=#ff0000;fontSize=8;" vertex="1" parent="1">
          <mxGeometry x="831" y="204" width="115" height="72" as="geometry" />
        </mxCell>
        <mxCell id="KFxmh9VQ-1izr3dkvZIK-4" value="" style="edgeStyle=orthogonalEdgeStyle;html=1;align=left;verticalAlign=top;endArrow=open;endSize=8;strokeColor=#ff0000;rounded=1;entryX=0;entryY=0.5;entryDx=0;entryDy=0;curved=0;exitX=0.5;exitY=1;exitDx=0;exitDy=0;" edge="1" parent="1" source="KFxmh9VQ-1izr3dkvZIK-1" target="KFxmh9VQ-1izr3dkvZIK-1">
          <mxGeometry x="0.6537" y="-12" relative="1" as="geometry">
            <mxPoint x="843" y="360" as="targetPoint" />
            <Array as="points">
              <mxPoint x="889" y="287" />
              <mxPoint x="831" y="287" />
            </Array>
            <mxPoint y="1" as="offset" />
            <mxPoint x="581" y="290" as="sourcePoint" />
          </mxGeometry>
        </mxCell>
        <mxCell id="KFxmh9VQ-1izr3dkvZIK-7" value="No" style="edgeLabel;html=1;align=center;verticalAlign=middle;resizable=0;points=[];" vertex="1" connectable="0" parent="KFxmh9VQ-1izr3dkvZIK-4">
          <mxGeometry x="0.1515" relative="1" as="geometry">
            <mxPoint x="19" as="offset" />
          </mxGeometry>
        </mxCell>
        <mxCell id="KFxmh9VQ-1izr3dkvZIK-8" value="" style="edgeStyle=orthogonalEdgeStyle;html=1;align=left;verticalAlign=top;endArrow=open;endSize=8;strokeColor=#ff0000;rounded=1;entryX=0;entryY=0.5;entryDx=0;entryDy=0;curved=0;exitX=1;exitY=0.5;exitDx=0;exitDy=0;" edge="1" parent="1" source="KFxmh9VQ-1izr3dkvZIK-1" target="y4a0M32hPEMpArKKtxwn-19">
          <mxGeometry x="0.6537" y="-12" relative="1" as="geometry">
            <mxPoint x="841" y="250" as="targetPoint" />
            <Array as="points">
              <mxPoint x="970" y="240" />
              <mxPoint x="970" y="240" />
            </Array>
            <mxPoint y="1" as="offset" />
            <mxPoint x="899" y="286" as="sourcePoint" />
          </mxGeometry>
        </mxCell>
        <mxCell id="KFxmh9VQ-1izr3dkvZIK-9" value="Yes" style="edgeLabel;html=1;align=center;verticalAlign=middle;resizable=0;points=[];" vertex="1" connectable="0" parent="KFxmh9VQ-1izr3dkvZIK-8">
          <mxGeometry x="0.1515" relative="1" as="geometry">
            <mxPoint x="-8" as="offset" />
          </mxGeometry>
        </mxCell>
      </root>
    </mxGraphModel>
  </diagram>
  <diagram name="TrafficLight_v1" id="o9gIGF37k6jqkOas-4De">
    <mxGraphModel dx="1434" dy="738" grid="0" gridSize="10" guides="1" tooltips="1" connect="1" arrows="1" fold="1" page="1" pageScale="1" pageWidth="1100" pageHeight="850" background="none" math="0" shadow="0">
      <root>
        <mxCell id="3vCllr6LxMNnYbpR1g6r-0" />
        <mxCell id="3vCllr6LxMNnYbpR1g6r-1" parent="3vCllr6LxMNnYbpR1g6r-0" />
        <mxCell id="3vCllr6LxMNnYbpR1g6r-2" value="" style="ellipse;html=1;shape=startState;fillColor=#000000;strokeColor=#ff0000;rounded=1;shadow=0;comic=0;labelBackgroundColor=none;fontFamily=Verdana;fontSize=12;fontColor=#000000;align=center;direction=south;" parent="3vCllr6LxMNnYbpR1g6r-1" vertex="1">
          <mxGeometry x="40" y="225" width="30" height="30" as="geometry" />
        </mxCell>
        <mxCell id="3vCllr6LxMNnYbpR1g6r-3" value="Initialize" style="rounded=1;whiteSpace=wrap;html=1;arcSize=24;fillColor=#ffffc0;strokeColor=#ff0000;shadow=0;comic=0;labelBackgroundColor=none;fontFamily=Verdana;fontSize=12;fontColor=#000000;align=center;" parent="3vCllr6LxMNnYbpR1g6r-1" vertex="1">
          <mxGeometry x="100" y="210" width="80" height="60" as="geometry" />
        </mxCell>
        <mxCell id="3vCllr6LxMNnYbpR1g6r-4" value="&lt;span style=&quot;font-family: Helvetica; font-size: 11px; text-align: center; background-color: rgb(255, 255, 255);&quot;&gt;T_st &amp;gt; T_init&lt;/span&gt;" style="edgeStyle=orthogonalEdgeStyle;html=1;exitX=1;exitY=0.5;labelBackgroundColor=none;endArrow=open;endSize=8;strokeColor=#ff0000;fontFamily=Verdana;fontSize=12;align=left;exitDx=0;exitDy=0;entryX=0.003;entryY=0.335;entryDx=0;entryDy=0;entryPerimeter=0;" parent="3vCllr6LxMNnYbpR1g6r-1" source="3vCllr6LxMNnYbpR1g6r-3" target="3vCllr6LxMNnYbpR1g6r-25" edge="1">
          <mxGeometry x="-0.4397" relative="1" as="geometry">
            <Array as="points" />
            <mxPoint x="-1" as="offset" />
          </mxGeometry>
        </mxCell>
        <mxCell id="3vCllr6LxMNnYbpR1g6r-5" style="edgeStyle=orthogonalEdgeStyle;html=1;labelBackgroundColor=none;endArrow=open;endSize=8;strokeColor=#ff0000;fontFamily=Verdana;fontSize=12;align=left;" parent="3vCllr6LxMNnYbpR1g6r-1" source="3vCllr6LxMNnYbpR1g6r-2" target="3vCllr6LxMNnYbpR1g6r-3" edge="1">
          <mxGeometry relative="1" as="geometry" />
        </mxCell>
        <mxCell id="3vCllr6LxMNnYbpR1g6r-6" value="System Description:&amp;nbsp;&lt;div&gt;&lt;ul&gt;&lt;li&gt;State machine for traffic light system for a basic 4-way intersection with traffic lights&lt;/li&gt;&lt;li&gt;One road is designated as the primary road and is expected to have majority of the traffic flow (e.g. highway road like El Camino Real i.e. SR-82 )&lt;/li&gt;&lt;li&gt;Second road is designated as secondary road and is expected to have minor traffic flow (e.g. neighborhood road)&lt;/li&gt;&lt;li&gt;T_st corresponds to the time in existing state&lt;/li&gt;&lt;/ul&gt;&lt;/div&gt;" style="text;html=1;align=left;verticalAlign=middle;whiteSpace=wrap;rounded=0;" parent="3vCllr6LxMNnYbpR1g6r-1" vertex="1">
          <mxGeometry x="130" y="20" width="840" height="100" as="geometry" />
        </mxCell>
        <mxCell id="3vCllr6LxMNnYbpR1g6r-7" value="Primary Road Green" style="rounded=1;whiteSpace=wrap;html=1;arcSize=24;fillColor=#ffffc0;strokeColor=#ff0000;shadow=0;comic=0;labelBackgroundColor=none;fontFamily=Verdana;fontSize=12;fontColor=#000000;align=center;" parent="3vCllr6LxMNnYbpR1g6r-1" vertex="1">
          <mxGeometry x="765" y="210" width="120" height="60" as="geometry" />
        </mxCell>
        <mxCell id="3vCllr6LxMNnYbpR1g6r-8" value="Primary Road Yellow" style="rounded=1;whiteSpace=wrap;html=1;arcSize=24;fillColor=#ffffc0;strokeColor=#ff0000;shadow=0;comic=0;labelBackgroundColor=none;fontFamily=Verdana;fontSize=12;fontColor=#000000;align=center;" parent="3vCllr6LxMNnYbpR1g6r-1" vertex="1">
          <mxGeometry x="980" y="210" width="95" height="60" as="geometry" />
        </mxCell>
        <mxCell id="3vCllr6LxMNnYbpR1g6r-9" value="Both Roads Red" style="rounded=1;whiteSpace=wrap;html=1;arcSize=24;fillColor=#ffffc0;strokeColor=#ff0000;shadow=0;comic=0;labelBackgroundColor=none;fontFamily=Verdana;fontSize=12;fontColor=#000000;align=center;" parent="3vCllr6LxMNnYbpR1g6r-1" vertex="1">
          <mxGeometry x="390" y="210" width="120" height="60" as="geometry" />
        </mxCell>
        <mxCell id="3vCllr6LxMNnYbpR1g6r-10" style="edgeStyle=orthogonalEdgeStyle;html=1;exitX=1;exitY=0.5;labelBackgroundColor=none;endArrow=open;endSize=8;strokeColor=#ff0000;fontFamily=Verdana;fontSize=12;align=left;exitDx=0;exitDy=0;entryX=0;entryY=0.5;entryDx=0;entryDy=0;" parent="3vCllr6LxMNnYbpR1g6r-1" source="3vCllr6LxMNnYbpR1g6r-9" target="3vCllr6LxMNnYbpR1g6r-22" edge="1">
          <mxGeometry relative="1" as="geometry">
            <Array as="points" />
            <mxPoint x="605" y="240" as="sourcePoint" />
            <mxPoint x="515" y="250" as="targetPoint" />
          </mxGeometry>
        </mxCell>
        <mxCell id="3vCllr6LxMNnYbpR1g6r-11" value="T_st &amp;gt; T1" style="edgeLabel;html=1;align=center;verticalAlign=middle;resizable=0;points=[];" parent="3vCllr6LxMNnYbpR1g6r-10" vertex="1" connectable="0">
          <mxGeometry relative="1" as="geometry">
            <mxPoint y="10" as="offset" />
          </mxGeometry>
        </mxCell>
        <mxCell id="3vCllr6LxMNnYbpR1g6r-14" style="edgeStyle=orthogonalEdgeStyle;html=1;exitX=0.5;exitY=0;labelBackgroundColor=none;endArrow=open;endSize=8;strokeColor=#ff0000;fontFamily=Verdana;fontSize=12;align=left;exitDx=0;exitDy=0;entryX=0.5;entryY=0;entryDx=0;entryDy=0;" parent="3vCllr6LxMNnYbpR1g6r-1" source="3vCllr6LxMNnYbpR1g6r-8" target="3vCllr6LxMNnYbpR1g6r-9" edge="1">
          <mxGeometry relative="1" as="geometry">
            <Array as="points">
              <mxPoint x="1030" y="210" />
              <mxPoint x="1030" y="180" />
              <mxPoint x="450" y="180" />
            </Array>
            <mxPoint x="485" y="270" as="sourcePoint" />
            <mxPoint x="545" y="210" as="targetPoint" />
          </mxGeometry>
        </mxCell>
        <mxCell id="3vCllr6LxMNnYbpR1g6r-15" value="T_st &amp;gt; T6" style="edgeLabel;html=1;align=center;verticalAlign=middle;resizable=0;points=[];" parent="3vCllr6LxMNnYbpR1g6r-14" vertex="1" connectable="0">
          <mxGeometry relative="1" as="geometry">
            <mxPoint as="offset" />
          </mxGeometry>
        </mxCell>
        <mxCell id="3vCllr6LxMNnYbpR1g6r-16" value="Secondary Road Green" style="rounded=1;whiteSpace=wrap;html=1;arcSize=24;fillColor=#ffffc0;strokeColor=#ff0000;shadow=0;comic=0;labelBackgroundColor=none;fontFamily=Verdana;fontSize=12;fontColor=#000000;align=center;" parent="3vCllr6LxMNnYbpR1g6r-1" vertex="1">
          <mxGeometry x="755" y="320" width="120" height="60" as="geometry" />
        </mxCell>
        <mxCell id="3vCllr6LxMNnYbpR1g6r-17" value="Secondary Road Yellow" style="rounded=1;whiteSpace=wrap;html=1;arcSize=24;fillColor=#ffffc0;strokeColor=#ff0000;shadow=0;comic=0;labelBackgroundColor=none;fontFamily=Verdana;fontSize=12;fontColor=#000000;align=center;" parent="3vCllr6LxMNnYbpR1g6r-1" vertex="1">
          <mxGeometry x="986" y="320" width="85" height="60" as="geometry" />
        </mxCell>
        <mxCell id="3vCllr6LxMNnYbpR1g6r-18" style="edgeStyle=orthogonalEdgeStyle;html=1;exitX=1;exitY=0.5;labelBackgroundColor=none;endArrow=open;endSize=8;strokeColor=#ff0000;fontFamily=Verdana;fontSize=12;align=left;exitDx=0;exitDy=0;entryX=0;entryY=0.5;entryDx=0;entryDy=0;" parent="3vCllr6LxMNnYbpR1g6r-1" source="3vCllr6LxMNnYbpR1g6r-16" target="3vCllr6LxMNnYbpR1g6r-17" edge="1">
          <mxGeometry relative="1" as="geometry">
            <Array as="points" />
            <mxPoint x="559" y="370" as="sourcePoint" />
            <mxPoint x="609" y="370" as="targetPoint" />
          </mxGeometry>
        </mxCell>
        <mxCell id="3vCllr6LxMNnYbpR1g6r-19" value="T_st &amp;gt; T5" style="edgeLabel;html=1;align=center;verticalAlign=middle;resizable=0;points=[];" parent="3vCllr6LxMNnYbpR1g6r-18" vertex="1" connectable="0">
          <mxGeometry relative="1" as="geometry">
            <mxPoint as="offset" />
          </mxGeometry>
        </mxCell>
        <mxCell id="3vCllr6LxMNnYbpR1g6r-20" style="edgeStyle=orthogonalEdgeStyle;html=1;exitX=0.5;exitY=1;labelBackgroundColor=none;endArrow=open;endSize=8;strokeColor=#ff0000;fontFamily=Verdana;fontSize=12;align=left;exitDx=0;exitDy=0;entryX=0.5;entryY=1;entryDx=0;entryDy=0;" parent="3vCllr6LxMNnYbpR1g6r-1" source="3vCllr6LxMNnYbpR1g6r-17" target="3vCllr6LxMNnYbpR1g6r-9" edge="1">
          <mxGeometry relative="1" as="geometry">
            <Array as="points" />
            <mxPoint x="550" y="260" as="sourcePoint" />
            <mxPoint x="600" y="260" as="targetPoint" />
          </mxGeometry>
        </mxCell>
        <mxCell id="3vCllr6LxMNnYbpR1g6r-21" value="T_st &amp;gt; T7" style="edgeLabel;html=1;align=center;verticalAlign=middle;resizable=0;points=[];" parent="3vCllr6LxMNnYbpR1g6r-20" vertex="1" connectable="0">
          <mxGeometry relative="1" as="geometry">
            <mxPoint as="offset" />
          </mxGeometry>
        </mxCell>
        <mxCell id="3vCllr6LxMNnYbpR1g6r-22" value="&lt;font style=&quot;font-size: 10px;&quot;&gt;roadForNextGrnLight?&lt;/font&gt;" style="rhombus;whiteSpace=wrap;html=1;fontColor=#000000;fillColor=#ffffc0;strokeColor=#ff0000;" parent="3vCllr6LxMNnYbpR1g6r-1" vertex="1">
          <mxGeometry x="574" y="200" width="136" height="80" as="geometry" />
        </mxCell>
        <mxCell id="3vCllr6LxMNnYbpR1g6r-23" value="&lt;span style=&quot;text-align: center;&quot;&gt;T_st &amp;gt; T2&lt;/span&gt;" style="edgeStyle=orthogonalEdgeStyle;html=1;align=left;verticalAlign=bottom;endArrow=open;endSize=8;strokeColor=#ff0000;rounded=0;entryX=0;entryY=0.5;entryDx=0;entryDy=0;" parent="3vCllr6LxMNnYbpR1g6r-1" source="3vCllr6LxMNnYbpR1g6r-22" target="3vCllr6LxMNnYbpR1g6r-7" edge="1">
          <mxGeometry x="-1" relative="1" as="geometry">
            <mxPoint x="755" y="240" as="targetPoint" />
          </mxGeometry>
        </mxCell>
        <mxCell id="3vCllr6LxMNnYbpR1g6r-24" value="&lt;span style=&quot;text-align: center;&quot;&gt;T_st &amp;gt; T3&lt;/span&gt;" style="edgeStyle=orthogonalEdgeStyle;html=1;align=left;verticalAlign=top;endArrow=open;endSize=8;strokeColor=#ff0000;rounded=1;entryX=0;entryY=0.5;entryDx=0;entryDy=0;curved=0;exitX=0.5;exitY=1;exitDx=0;exitDy=0;" parent="3vCllr6LxMNnYbpR1g6r-1" source="3vCllr6LxMNnYbpR1g6r-22" target="3vCllr6LxMNnYbpR1g6r-16" edge="1">
          <mxGeometry x="-0.6341" y="10" relative="1" as="geometry">
            <mxPoint x="685" y="320" as="targetPoint" />
            <Array as="points">
              <mxPoint x="642" y="350" />
            </Array>
            <mxPoint as="offset" />
          </mxGeometry>
        </mxCell>
        <mxCell id="3vCllr6LxMNnYbpR1g6r-25" value="Normal" style="shape=umlFrame;whiteSpace=wrap;html=1;pointerEvents=0;" parent="3vCllr6LxMNnYbpR1g6r-1" vertex="1">
          <mxGeometry x="320" y="150" width="770" height="270" as="geometry" />
        </mxCell>
        <mxCell id="3vCllr6LxMNnYbpR1g6r-26" value="" style="ellipse;html=1;shape=startState;fillColor=#000000;strokeColor=#ff0000;" parent="3vCllr6LxMNnYbpR1g6r-1" vertex="1">
          <mxGeometry x="350" y="190" width="30" height="30" as="geometry" />
        </mxCell>
        <mxCell id="3vCllr6LxMNnYbpR1g6r-27" value="" style="edgeStyle=orthogonalEdgeStyle;html=1;verticalAlign=bottom;endArrow=open;endSize=8;strokeColor=#ff0000;rounded=1;entryX=0;entryY=0.5;entryDx=0;entryDy=0;exitX=0.5;exitY=1;exitDx=0;exitDy=0;curved=0;" parent="3vCllr6LxMNnYbpR1g6r-1" source="3vCllr6LxMNnYbpR1g6r-26" target="3vCllr6LxMNnYbpR1g6r-9" edge="1">
          <mxGeometry relative="1" as="geometry">
            <mxPoint x="395" y="299" as="targetPoint" />
          </mxGeometry>
        </mxCell>
        <mxCell id="IduEJ0krSf0QHvikG718-2" value="t" style="edgeStyle=orthogonalEdgeStyle;html=1;exitX=1;exitY=0.5;labelBackgroundColor=none;endArrow=open;endSize=8;strokeColor=#ff0000;fontFamily=Verdana;fontSize=12;align=left;exitDx=0;exitDy=0;entryX=0;entryY=0.5;entryDx=0;entryDy=0;" parent="3vCllr6LxMNnYbpR1g6r-1" source="3vCllr6LxMNnYbpR1g6r-7" target="3vCllr6LxMNnYbpR1g6r-8" edge="1">
          <mxGeometry relative="1" as="geometry">
            <Array as="points" />
            <mxPoint x="885" y="360" as="sourcePoint" />
            <mxPoint x="996" y="360" as="targetPoint" />
          </mxGeometry>
        </mxCell>
        <mxCell id="IduEJ0krSf0QHvikG718-3" value="T_st &amp;gt; T4" style="edgeLabel;html=1;align=center;verticalAlign=middle;resizable=0;points=[];" parent="IduEJ0krSf0QHvikG718-2" vertex="1" connectable="0">
          <mxGeometry relative="1" as="geometry">
            <mxPoint as="offset" />
          </mxGeometry>
        </mxCell>
      </root>
    </mxGraphModel>
  </diagram>
  <diagram name="TrafficLight_v2" id="1mA9d5fQ42SzOaeXHoEH">
    <mxGraphModel dx="1434" dy="738" grid="0" gridSize="10" guides="1" tooltips="1" connect="1" arrows="1" fold="1" page="1" pageScale="1" pageWidth="1100" pageHeight="850" background="none" math="0" shadow="0">
      <root>
        <mxCell id="_HrsRCG0uTLNJAFn0sxw-0" />
        <mxCell id="_HrsRCG0uTLNJAFn0sxw-1" parent="_HrsRCG0uTLNJAFn0sxw-0" />
        <mxCell id="_HrsRCG0uTLNJAFn0sxw-2" value="System Description:&amp;nbsp;&lt;div&gt;&lt;ul&gt;&lt;li&gt;State machine for traffic light system for a basic 4-way intersection with traffic lights&lt;/li&gt;&lt;li&gt;One road is designated as the primary road and is expected to have majority of the traffic flow (e.g. highway road like El Camino Real i.e. SR-82 )&lt;/li&gt;&lt;li&gt;Second road is designated as secondary road and is expected to have minor traffic flow (e.g. neighborhood road)&lt;/li&gt;&lt;li&gt;T_st corresponds to the time in existing state&lt;/li&gt;&lt;/ul&gt;&lt;/div&gt;" style="text;html=1;align=left;verticalAlign=middle;whiteSpace=wrap;rounded=0;" vertex="1" parent="_HrsRCG0uTLNJAFn0sxw-1">
          <mxGeometry x="130" y="20" width="850" height="100" as="geometry" />
        </mxCell>
        <mxCell id="_HrsRCG0uTLNJAFn0sxw-3" value="" style="edgeStyle=orthogonalEdgeStyle;html=1;verticalAlign=bottom;endArrow=open;endSize=8;strokeColor=#ff0000;rounded=0;entryX=0.599;entryY=0;entryDx=0;entryDy=0;entryPerimeter=0;exitX=0.514;exitY=1;exitDx=0;exitDy=0;exitPerimeter=0;" edge="1" parent="_HrsRCG0uTLNJAFn0sxw-1" source="_HrsRCG0uTLNJAFn0sxw-35" target="_HrsRCG0uTLNJAFn0sxw-6">
          <mxGeometry relative="1" as="geometry">
            <mxPoint x="643" y="470" as="targetPoint" />
            <mxPoint x="710" y="450" as="sourcePoint" />
          </mxGeometry>
        </mxCell>
        <mxCell id="_HrsRCG0uTLNJAFn0sxw-4" value="FAULT" style="edgeLabel;html=1;align=center;verticalAlign=middle;resizable=0;points=[];" vertex="1" connectable="0" parent="_HrsRCG0uTLNJAFn0sxw-3">
          <mxGeometry relative="1" as="geometry">
            <mxPoint as="offset" />
          </mxGeometry>
        </mxCell>
        <mxCell id="_HrsRCG0uTLNJAFn0sxw-5" value="FAULT Removed" style="edgeStyle=orthogonalEdgeStyle;html=1;verticalAlign=bottom;endArrow=open;endSize=8;strokeColor=#ff0000;rounded=0;entryX=0.5;entryY=1;entryDx=0;entryDy=0;exitX=-0.004;exitY=0.498;exitDx=0;exitDy=0;exitPerimeter=0;" edge="1" parent="_HrsRCG0uTLNJAFn0sxw-1" source="_HrsRCG0uTLNJAFn0sxw-6" target="_HrsRCG0uTLNJAFn0sxw-16">
          <mxGeometry relative="1" as="geometry">
            <mxPoint x="180" y="270" as="targetPoint" />
            <mxPoint x="653" y="431" as="sourcePoint" />
          </mxGeometry>
        </mxCell>
        <mxCell id="_HrsRCG0uTLNJAFn0sxw-6" value="Flashing" style="shape=umlFrame;whiteSpace=wrap;html=1;pointerEvents=0;" vertex="1" parent="_HrsRCG0uTLNJAFn0sxw-1">
          <mxGeometry x="320" y="510" width="680" height="210" as="geometry" />
        </mxCell>
        <mxCell id="_HrsRCG0uTLNJAFn0sxw-7" value="Timer Expired" style="edgeStyle=orthogonalEdgeStyle;rounded=1;orthogonalLoop=1;jettySize=auto;html=1;curved=0;fillColor=#e51400;strokeColor=#ff0000;entryX=0.5;entryY=0;entryDx=0;entryDy=0;exitX=0.5;exitY=0;exitDx=0;exitDy=0;" edge="1" parent="_HrsRCG0uTLNJAFn0sxw-1" source="_HrsRCG0uTLNJAFn0sxw-8" target="_HrsRCG0uTLNJAFn0sxw-9">
          <mxGeometry relative="1" as="geometry">
            <mxPoint x="791" y="595" as="targetPoint" />
          </mxGeometry>
        </mxCell>
        <mxCell id="_HrsRCG0uTLNJAFn0sxw-8" value="Primary Road Yellow&lt;div&gt;Secondary Road Red&lt;/div&gt;" style="rounded=1;whiteSpace=wrap;html=1;arcSize=24;fillColor=#ffffc0;strokeColor=#ff0000;shadow=0;comic=0;labelBackgroundColor=none;fontFamily=Verdana;fontSize=12;fontColor=#000000;align=center;" vertex="1" parent="_HrsRCG0uTLNJAFn0sxw-1">
          <mxGeometry x="521" y="550" width="150" height="90" as="geometry" />
        </mxCell>
        <mxCell id="_HrsRCG0uTLNJAFn0sxw-9" value="Both Roads Off" style="rounded=1;whiteSpace=wrap;html=1;arcSize=24;fillColor=#ffffc0;strokeColor=#ff0000;shadow=0;comic=0;labelBackgroundColor=none;fontFamily=Verdana;fontSize=12;fontColor=#000000;align=center;" vertex="1" parent="_HrsRCG0uTLNJAFn0sxw-1">
          <mxGeometry x="821" y="550" width="150" height="90" as="geometry" />
        </mxCell>
        <mxCell id="_HrsRCG0uTLNJAFn0sxw-10" value="Timer Expired" style="edgeStyle=orthogonalEdgeStyle;rounded=1;orthogonalLoop=1;jettySize=auto;html=1;curved=0;fillColor=#e51400;strokeColor=#ff0000;entryX=0.5;entryY=1;entryDx=0;entryDy=0;exitX=0.5;exitY=1;exitDx=0;exitDy=0;" edge="1" parent="_HrsRCG0uTLNJAFn0sxw-1" source="_HrsRCG0uTLNJAFn0sxw-9" target="_HrsRCG0uTLNJAFn0sxw-8">
          <mxGeometry relative="1" as="geometry">
            <mxPoint x="606" y="560" as="sourcePoint" />
            <mxPoint x="906" y="560" as="targetPoint" />
          </mxGeometry>
        </mxCell>
        <mxCell id="_HrsRCG0uTLNJAFn0sxw-11" value="" style="ellipse;html=1;shape=startState;fillColor=#000000;strokeColor=#ff0000;" vertex="1" parent="_HrsRCG0uTLNJAFn0sxw-1">
          <mxGeometry x="340" y="560" width="30" height="30" as="geometry" />
        </mxCell>
        <mxCell id="_HrsRCG0uTLNJAFn0sxw-12" value="" style="edgeStyle=orthogonalEdgeStyle;html=1;verticalAlign=bottom;endArrow=open;endSize=8;strokeColor=#ff0000;rounded=1;entryX=0;entryY=0.5;entryDx=0;entryDy=0;exitX=0.5;exitY=1;exitDx=0;exitDy=0;curved=0;" edge="1" parent="_HrsRCG0uTLNJAFn0sxw-1" source="_HrsRCG0uTLNJAFn0sxw-11" target="_HrsRCG0uTLNJAFn0sxw-13">
          <mxGeometry relative="1" as="geometry">
            <mxPoint x="410" y="620" as="targetPoint" />
          </mxGeometry>
        </mxCell>
        <mxCell id="_HrsRCG0uTLNJAFn0sxw-13" value="Both Red" style="rounded=1;whiteSpace=wrap;html=1;arcSize=24;fillColor=#ffffc0;strokeColor=#ff0000;shadow=0;comic=0;labelBackgroundColor=none;fontFamily=Verdana;fontSize=12;fontColor=#000000;align=center;" vertex="1" parent="_HrsRCG0uTLNJAFn0sxw-1">
          <mxGeometry x="400" y="580" width="70" height="50" as="geometry" />
        </mxCell>
        <mxCell id="_HrsRCG0uTLNJAFn0sxw-14" value="" style="edgeStyle=orthogonalEdgeStyle;html=1;verticalAlign=bottom;endArrow=open;endSize=8;strokeColor=#ff0000;rounded=1;entryX=-0.02;entryY=0.613;entryDx=0;entryDy=0;exitX=1;exitY=0.5;exitDx=0;exitDy=0;curved=0;entryPerimeter=0;" edge="1" parent="_HrsRCG0uTLNJAFn0sxw-1" source="_HrsRCG0uTLNJAFn0sxw-13" target="_HrsRCG0uTLNJAFn0sxw-8">
          <mxGeometry relative="1" as="geometry">
            <mxPoint x="410" y="615" as="targetPoint" />
            <mxPoint x="365" y="600" as="sourcePoint" />
          </mxGeometry>
        </mxCell>
        <mxCell id="_HrsRCG0uTLNJAFn0sxw-15" value="" style="ellipse;html=1;shape=startState;fillColor=#000000;strokeColor=#ff0000;rounded=1;shadow=0;comic=0;labelBackgroundColor=none;fontFamily=Verdana;fontSize=12;fontColor=#000000;align=center;direction=south;" vertex="1" parent="_HrsRCG0uTLNJAFn0sxw-1">
          <mxGeometry x="24" y="225" width="30" height="30" as="geometry" />
        </mxCell>
        <mxCell id="_HrsRCG0uTLNJAFn0sxw-16" value="Initialize" style="rounded=1;whiteSpace=wrap;html=1;arcSize=24;fillColor=#ffffc0;strokeColor=#ff0000;shadow=0;comic=0;labelBackgroundColor=none;fontFamily=Verdana;fontSize=12;fontColor=#000000;align=center;" vertex="1" parent="_HrsRCG0uTLNJAFn0sxw-1">
          <mxGeometry x="75" y="210" width="63" height="60" as="geometry" />
        </mxCell>
        <mxCell id="_HrsRCG0uTLNJAFn0sxw-17" value="" style="edgeStyle=orthogonalEdgeStyle;html=1;exitX=1;exitY=0.5;labelBackgroundColor=none;endArrow=open;endSize=8;strokeColor=#ff0000;fontFamily=Verdana;fontSize=12;align=center;exitDx=0;exitDy=0;entryX=-0.004;entryY=0.333;entryDx=0;entryDy=0;entryPerimeter=0;" edge="1" parent="_HrsRCG0uTLNJAFn0sxw-1" source="_HrsRCG0uTLNJAFn0sxw-41" target="_HrsRCG0uTLNJAFn0sxw-35">
          <mxGeometry x="-0.0991" y="-16" relative="1" as="geometry">
            <Array as="points">
              <mxPoint x="280" y="240" />
              <mxPoint x="280" y="240" />
            </Array>
            <mxPoint as="offset" />
          </mxGeometry>
        </mxCell>
        <mxCell id="IjGwDe5YTBgECZsxyqtT-0" value="NO &amp;amp;&amp;nbsp;&lt;div style=&quot;font-family: Verdana; font-size: 12px; background-color: rgb(251, 251, 251);&quot;&gt;&lt;span style=&quot;font-family: Helvetica; font-size: 11px; background-color: rgb(255, 255, 255);&quot;&gt;T_st &amp;gt; T_init&lt;/span&gt;&lt;/div&gt;" style="edgeLabel;html=1;align=center;verticalAlign=middle;resizable=0;points=[];" vertex="1" connectable="0" parent="_HrsRCG0uTLNJAFn0sxw-17">
          <mxGeometry x="0.4595" relative="1" as="geometry">
            <mxPoint x="-32" as="offset" />
          </mxGeometry>
        </mxCell>
        <mxCell id="_HrsRCG0uTLNJAFn0sxw-18" style="edgeStyle=orthogonalEdgeStyle;html=1;labelBackgroundColor=none;endArrow=open;endSize=8;strokeColor=#ff0000;fontFamily=Verdana;fontSize=12;align=left;" edge="1" parent="_HrsRCG0uTLNJAFn0sxw-1" source="_HrsRCG0uTLNJAFn0sxw-15" target="_HrsRCG0uTLNJAFn0sxw-16">
          <mxGeometry relative="1" as="geometry" />
        </mxCell>
        <mxCell id="_HrsRCG0uTLNJAFn0sxw-19" value="Primary Road Green" style="rounded=1;whiteSpace=wrap;html=1;arcSize=24;fillColor=#ffffc0;strokeColor=#ff0000;shadow=0;comic=0;labelBackgroundColor=none;fontFamily=Verdana;fontSize=12;fontColor=#000000;align=center;" vertex="1" parent="_HrsRCG0uTLNJAFn0sxw-1">
          <mxGeometry x="765" y="210" width="120" height="60" as="geometry" />
        </mxCell>
        <mxCell id="_HrsRCG0uTLNJAFn0sxw-20" value="Primary Road Yellow" style="rounded=1;whiteSpace=wrap;html=1;arcSize=24;fillColor=#ffffc0;strokeColor=#ff0000;shadow=0;comic=0;labelBackgroundColor=none;fontFamily=Verdana;fontSize=12;fontColor=#000000;align=center;" vertex="1" parent="_HrsRCG0uTLNJAFn0sxw-1">
          <mxGeometry x="980" y="210" width="95" height="60" as="geometry" />
        </mxCell>
        <mxCell id="_HrsRCG0uTLNJAFn0sxw-21" value="Both Roads Red" style="rounded=1;whiteSpace=wrap;html=1;arcSize=24;fillColor=#ffffc0;strokeColor=#ff0000;shadow=0;comic=0;labelBackgroundColor=none;fontFamily=Verdana;fontSize=12;fontColor=#000000;align=center;" vertex="1" parent="_HrsRCG0uTLNJAFn0sxw-1">
          <mxGeometry x="390" y="210" width="120" height="60" as="geometry" />
        </mxCell>
        <mxCell id="_HrsRCG0uTLNJAFn0sxw-22" style="edgeStyle=orthogonalEdgeStyle;html=1;exitX=1;exitY=0.5;labelBackgroundColor=none;endArrow=open;endSize=8;strokeColor=#ff0000;fontFamily=Verdana;fontSize=12;align=left;exitDx=0;exitDy=0;entryX=0;entryY=0.5;entryDx=0;entryDy=0;" edge="1" parent="_HrsRCG0uTLNJAFn0sxw-1" source="_HrsRCG0uTLNJAFn0sxw-21" target="_HrsRCG0uTLNJAFn0sxw-32">
          <mxGeometry relative="1" as="geometry">
            <Array as="points" />
            <mxPoint x="605" y="240" as="sourcePoint" />
            <mxPoint x="515" y="250" as="targetPoint" />
          </mxGeometry>
        </mxCell>
        <mxCell id="_HrsRCG0uTLNJAFn0sxw-23" value="T_st &amp;gt; T1" style="edgeLabel;html=1;align=center;verticalAlign=middle;resizable=0;points=[];" vertex="1" connectable="0" parent="_HrsRCG0uTLNJAFn0sxw-22">
          <mxGeometry relative="1" as="geometry">
            <mxPoint y="10" as="offset" />
          </mxGeometry>
        </mxCell>
        <mxCell id="_HrsRCG0uTLNJAFn0sxw-24" style="edgeStyle=orthogonalEdgeStyle;html=1;exitX=0.5;exitY=0;labelBackgroundColor=none;endArrow=open;endSize=8;strokeColor=#ff0000;fontFamily=Verdana;fontSize=12;align=left;exitDx=0;exitDy=0;entryX=0.5;entryY=0;entryDx=0;entryDy=0;" edge="1" parent="_HrsRCG0uTLNJAFn0sxw-1" source="_HrsRCG0uTLNJAFn0sxw-20" target="_HrsRCG0uTLNJAFn0sxw-21">
          <mxGeometry relative="1" as="geometry">
            <Array as="points">
              <mxPoint x="1030" y="210" />
              <mxPoint x="1030" y="180" />
              <mxPoint x="450" y="180" />
            </Array>
            <mxPoint x="485" y="270" as="sourcePoint" />
            <mxPoint x="545" y="210" as="targetPoint" />
          </mxGeometry>
        </mxCell>
        <mxCell id="_HrsRCG0uTLNJAFn0sxw-25" value="T_st &amp;gt; T6" style="edgeLabel;html=1;align=center;verticalAlign=middle;resizable=0;points=[];" vertex="1" connectable="0" parent="_HrsRCG0uTLNJAFn0sxw-24">
          <mxGeometry relative="1" as="geometry">
            <mxPoint as="offset" />
          </mxGeometry>
        </mxCell>
        <mxCell id="_HrsRCG0uTLNJAFn0sxw-26" value="Secondary Road Green" style="rounded=1;whiteSpace=wrap;html=1;arcSize=24;fillColor=#ffffc0;strokeColor=#ff0000;shadow=0;comic=0;labelBackgroundColor=none;fontFamily=Verdana;fontSize=12;fontColor=#000000;align=center;" vertex="1" parent="_HrsRCG0uTLNJAFn0sxw-1">
          <mxGeometry x="755" y="320" width="120" height="60" as="geometry" />
        </mxCell>
        <mxCell id="_HrsRCG0uTLNJAFn0sxw-27" value="Secondary Road Yellow" style="rounded=1;whiteSpace=wrap;html=1;arcSize=24;fillColor=#ffffc0;strokeColor=#ff0000;shadow=0;comic=0;labelBackgroundColor=none;fontFamily=Verdana;fontSize=12;fontColor=#000000;align=center;" vertex="1" parent="_HrsRCG0uTLNJAFn0sxw-1">
          <mxGeometry x="986" y="320" width="85" height="60" as="geometry" />
        </mxCell>
        <mxCell id="_HrsRCG0uTLNJAFn0sxw-28" style="edgeStyle=orthogonalEdgeStyle;html=1;exitX=1;exitY=0.5;labelBackgroundColor=none;endArrow=open;endSize=8;strokeColor=#ff0000;fontFamily=Verdana;fontSize=12;align=left;exitDx=0;exitDy=0;entryX=0;entryY=0.5;entryDx=0;entryDy=0;" edge="1" parent="_HrsRCG0uTLNJAFn0sxw-1" source="_HrsRCG0uTLNJAFn0sxw-26" target="_HrsRCG0uTLNJAFn0sxw-27">
          <mxGeometry relative="1" as="geometry">
            <Array as="points" />
            <mxPoint x="559" y="370" as="sourcePoint" />
            <mxPoint x="609" y="370" as="targetPoint" />
          </mxGeometry>
        </mxCell>
        <mxCell id="_HrsRCG0uTLNJAFn0sxw-29" value="T_st &amp;gt; T5" style="edgeLabel;html=1;align=center;verticalAlign=middle;resizable=0;points=[];" vertex="1" connectable="0" parent="_HrsRCG0uTLNJAFn0sxw-28">
          <mxGeometry relative="1" as="geometry">
            <mxPoint as="offset" />
          </mxGeometry>
        </mxCell>
        <mxCell id="_HrsRCG0uTLNJAFn0sxw-30" style="edgeStyle=orthogonalEdgeStyle;html=1;exitX=0.5;exitY=1;labelBackgroundColor=none;endArrow=open;endSize=8;strokeColor=#ff0000;fontFamily=Verdana;fontSize=12;align=left;exitDx=0;exitDy=0;entryX=0.5;entryY=1;entryDx=0;entryDy=0;" edge="1" parent="_HrsRCG0uTLNJAFn0sxw-1" source="_HrsRCG0uTLNJAFn0sxw-27" target="_HrsRCG0uTLNJAFn0sxw-21">
          <mxGeometry relative="1" as="geometry">
            <Array as="points" />
            <mxPoint x="550" y="260" as="sourcePoint" />
            <mxPoint x="600" y="260" as="targetPoint" />
          </mxGeometry>
        </mxCell>
        <mxCell id="_HrsRCG0uTLNJAFn0sxw-31" value="T_st &amp;gt; T7" style="edgeLabel;html=1;align=center;verticalAlign=middle;resizable=0;points=[];" vertex="1" connectable="0" parent="_HrsRCG0uTLNJAFn0sxw-30">
          <mxGeometry relative="1" as="geometry">
            <mxPoint as="offset" />
          </mxGeometry>
        </mxCell>
        <mxCell id="_HrsRCG0uTLNJAFn0sxw-32" value="&lt;font style=&quot;font-size: 10px;&quot;&gt;roadForNextGrnLight?&lt;/font&gt;" style="rhombus;whiteSpace=wrap;html=1;fontColor=#000000;fillColor=#ffffc0;strokeColor=#ff0000;" vertex="1" parent="_HrsRCG0uTLNJAFn0sxw-1">
          <mxGeometry x="574" y="200" width="136" height="80" as="geometry" />
        </mxCell>
        <mxCell id="_HrsRCG0uTLNJAFn0sxw-33" value="&lt;span style=&quot;text-align: center;&quot;&gt;T_st &amp;gt; T2&lt;/span&gt;" style="edgeStyle=orthogonalEdgeStyle;html=1;align=left;verticalAlign=bottom;endArrow=open;endSize=8;strokeColor=#ff0000;rounded=0;entryX=0;entryY=0.5;entryDx=0;entryDy=0;" edge="1" parent="_HrsRCG0uTLNJAFn0sxw-1" source="_HrsRCG0uTLNJAFn0sxw-32" target="_HrsRCG0uTLNJAFn0sxw-19">
          <mxGeometry x="-1" relative="1" as="geometry">
            <mxPoint x="755" y="240" as="targetPoint" />
          </mxGeometry>
        </mxCell>
        <mxCell id="_HrsRCG0uTLNJAFn0sxw-34" value="&lt;span style=&quot;text-align: center;&quot;&gt;T_st &amp;gt; T3&lt;/span&gt;" style="edgeStyle=orthogonalEdgeStyle;html=1;align=left;verticalAlign=top;endArrow=open;endSize=8;strokeColor=#ff0000;rounded=1;entryX=0;entryY=0.5;entryDx=0;entryDy=0;curved=0;exitX=0.5;exitY=1;exitDx=0;exitDy=0;" edge="1" parent="_HrsRCG0uTLNJAFn0sxw-1" source="_HrsRCG0uTLNJAFn0sxw-32" target="_HrsRCG0uTLNJAFn0sxw-26">
          <mxGeometry x="-0.6341" y="10" relative="1" as="geometry">
            <mxPoint x="685" y="320" as="targetPoint" />
            <Array as="points">
              <mxPoint x="642" y="350" />
            </Array>
            <mxPoint as="offset" />
          </mxGeometry>
        </mxCell>
        <mxCell id="_HrsRCG0uTLNJAFn0sxw-35" value="Normal" style="shape=umlFrame;whiteSpace=wrap;html=1;pointerEvents=0;" vertex="1" parent="_HrsRCG0uTLNJAFn0sxw-1">
          <mxGeometry x="340" y="150" width="750" height="270" as="geometry" />
        </mxCell>
        <mxCell id="_HrsRCG0uTLNJAFn0sxw-36" value="" style="ellipse;html=1;shape=startState;fillColor=#000000;strokeColor=#ff0000;" vertex="1" parent="_HrsRCG0uTLNJAFn0sxw-1">
          <mxGeometry x="350" y="190" width="30" height="30" as="geometry" />
        </mxCell>
        <mxCell id="_HrsRCG0uTLNJAFn0sxw-37" value="" style="edgeStyle=orthogonalEdgeStyle;html=1;verticalAlign=bottom;endArrow=open;endSize=8;strokeColor=#ff0000;rounded=1;entryX=0;entryY=0.5;entryDx=0;entryDy=0;exitX=0.5;exitY=1;exitDx=0;exitDy=0;curved=0;" edge="1" parent="_HrsRCG0uTLNJAFn0sxw-1" source="_HrsRCG0uTLNJAFn0sxw-36" target="_HrsRCG0uTLNJAFn0sxw-21">
          <mxGeometry relative="1" as="geometry">
            <mxPoint x="395" y="299" as="targetPoint" />
          </mxGeometry>
        </mxCell>
        <mxCell id="_HrsRCG0uTLNJAFn0sxw-38" value="t" style="edgeStyle=orthogonalEdgeStyle;html=1;exitX=1;exitY=0.5;labelBackgroundColor=none;endArrow=open;endSize=8;strokeColor=#ff0000;fontFamily=Verdana;fontSize=12;align=left;exitDx=0;exitDy=0;entryX=0;entryY=0.5;entryDx=0;entryDy=0;" edge="1" parent="_HrsRCG0uTLNJAFn0sxw-1" source="_HrsRCG0uTLNJAFn0sxw-19" target="_HrsRCG0uTLNJAFn0sxw-20">
          <mxGeometry relative="1" as="geometry">
            <Array as="points" />
            <mxPoint x="885" y="360" as="sourcePoint" />
            <mxPoint x="996" y="360" as="targetPoint" />
          </mxGeometry>
        </mxCell>
        <mxCell id="_HrsRCG0uTLNJAFn0sxw-39" value="T_st &amp;gt; T4" style="edgeLabel;html=1;align=center;verticalAlign=middle;resizable=0;points=[];" vertex="1" connectable="0" parent="_HrsRCG0uTLNJAFn0sxw-38">
          <mxGeometry relative="1" as="geometry">
            <mxPoint as="offset" />
          </mxGeometry>
        </mxCell>
        <mxCell id="_HrsRCG0uTLNJAFn0sxw-40" value="" style="edgeStyle=orthogonalEdgeStyle;html=1;exitX=1;exitY=0.5;labelBackgroundColor=none;endArrow=open;endSize=8;strokeColor=#ff0000;fontFamily=Verdana;fontSize=12;align=left;exitDx=0;exitDy=0;entryX=0;entryY=0.5;entryDx=0;entryDy=0;" edge="1" parent="_HrsRCG0uTLNJAFn0sxw-1" source="_HrsRCG0uTLNJAFn0sxw-16" target="_HrsRCG0uTLNJAFn0sxw-41">
          <mxGeometry x="-0.4397" relative="1" as="geometry">
            <Array as="points" />
            <mxPoint x="-1" as="offset" />
            <mxPoint x="180" y="240" as="sourcePoint" />
            <mxPoint x="317" y="240" as="targetPoint" />
          </mxGeometry>
        </mxCell>
        <mxCell id="_HrsRCG0uTLNJAFn0sxw-41" value="&lt;font style=&quot;font-size: 10px;&quot;&gt;FAULT?&lt;/font&gt;" style="rhombus;whiteSpace=wrap;html=1;fontColor=#000000;fillColor=#ffffc0;strokeColor=#ff0000;" vertex="1" parent="_HrsRCG0uTLNJAFn0sxw-1">
          <mxGeometry x="160" y="220" width="66" height="40" as="geometry" />
        </mxCell>
        <mxCell id="_HrsRCG0uTLNJAFn0sxw-42" value="&lt;span style=&quot;font-family: Helvetica; font-size: 11px; text-align: center; background-color: rgb(255, 255, 255);&quot;&gt;YES&lt;/span&gt;" style="edgeStyle=orthogonalEdgeStyle;html=1;exitX=0.5;exitY=1;labelBackgroundColor=none;endArrow=open;endSize=8;strokeColor=#ff0000;fontFamily=Verdana;fontSize=12;align=left;exitDx=0;exitDy=0;entryX=-0.003;entryY=0.267;entryDx=0;entryDy=0;entryPerimeter=0;" edge="1" parent="_HrsRCG0uTLNJAFn0sxw-1" source="_HrsRCG0uTLNJAFn0sxw-41" target="_HrsRCG0uTLNJAFn0sxw-6">
          <mxGeometry x="-0.4147" y="-14" relative="1" as="geometry">
            <Array as="points">
              <mxPoint x="193" y="566" />
            </Array>
            <mxPoint as="offset" />
            <mxPoint x="257" y="250" as="sourcePoint" />
            <mxPoint x="347" y="250" as="targetPoint" />
          </mxGeometry>
        </mxCell>
      </root>
    </mxGraphModel>
  </diagram>
  <diagram id="FF7KpID0sAtyR3n2pGyz" name="Mcu_Configuration">
    <mxGraphModel dx="989" dy="509" grid="1" gridSize="10" guides="1" tooltips="1" connect="1" arrows="1" fold="1" page="1" pageScale="1" pageWidth="850" pageHeight="1100" math="0" shadow="0">
      <root>
        <mxCell id="0" />
        <mxCell id="1" parent="0" />
        <mxCell id="_rpqtCCRmSfiOKcgpHo1-60" value="" style="group" vertex="1" connectable="0" parent="1">
          <mxGeometry x="60" y="40" width="540" height="321" as="geometry" />
        </mxCell>
        <mxCell id="_rpqtCCRmSfiOKcgpHo1-1" value="" style="endArrow=none;html=1;rounded=0;strokeWidth=5;" edge="1" parent="_rpqtCCRmSfiOKcgpHo1-60">
          <mxGeometry width="50" height="50" relative="1" as="geometry">
            <mxPoint x="140" y="80" as="sourcePoint" />
            <mxPoint x="140" y="50" as="targetPoint" />
          </mxGeometry>
        </mxCell>
        <mxCell id="_rpqtCCRmSfiOKcgpHo1-3" value="" style="endArrow=none;html=1;rounded=0;strokeWidth=5;" edge="1" parent="_rpqtCCRmSfiOKcgpHo1-60">
          <mxGeometry width="50" height="50" relative="1" as="geometry">
            <mxPoint x="260" y="80" as="sourcePoint" />
            <mxPoint x="260" y="50" as="targetPoint" />
          </mxGeometry>
        </mxCell>
        <mxCell id="_rpqtCCRmSfiOKcgpHo1-4" value="" style="endArrow=none;html=1;rounded=0;strokeWidth=5;" edge="1" parent="_rpqtCCRmSfiOKcgpHo1-60">
          <mxGeometry width="50" height="50" relative="1" as="geometry">
            <mxPoint x="380" y="80" as="sourcePoint" />
            <mxPoint x="380" y="50" as="targetPoint" />
          </mxGeometry>
        </mxCell>
        <mxCell id="_rpqtCCRmSfiOKcgpHo1-6" value="" style="endArrow=classic;html=1;rounded=0;" edge="1" parent="_rpqtCCRmSfiOKcgpHo1-60">
          <mxGeometry width="50" height="50" relative="1" as="geometry">
            <mxPoint x="140" y="80" as="sourcePoint" />
            <mxPoint x="540" y="80" as="targetPoint" />
          </mxGeometry>
        </mxCell>
        <mxCell id="_rpqtCCRmSfiOKcgpHo1-7" value="" style="endArrow=none;html=1;rounded=0;" edge="1" parent="_rpqtCCRmSfiOKcgpHo1-60">
          <mxGeometry width="50" height="50" relative="1" as="geometry">
            <mxPoint x="138" y="320" as="sourcePoint" />
            <mxPoint x="138" as="targetPoint" />
          </mxGeometry>
        </mxCell>
        <mxCell id="_rpqtCCRmSfiOKcgpHo1-8" value="Main Application Task" style="text;strokeColor=none;align=center;fillColor=none;html=1;verticalAlign=middle;whiteSpace=wrap;rounded=0;" vertex="1" parent="_rpqtCCRmSfiOKcgpHo1-60">
          <mxGeometry y="50" width="130" height="30" as="geometry" />
        </mxCell>
        <mxCell id="_rpqtCCRmSfiOKcgpHo1-10" value="" style="endArrow=none;html=1;rounded=0;" edge="1" parent="_rpqtCCRmSfiOKcgpHo1-60">
          <mxGeometry width="50" height="50" relative="1" as="geometry">
            <mxPoint x="259" y="321" as="sourcePoint" />
            <mxPoint x="259" y="1" as="targetPoint" />
          </mxGeometry>
        </mxCell>
        <mxCell id="_rpqtCCRmSfiOKcgpHo1-11" value="" style="endArrow=none;html=1;rounded=0;" edge="1" parent="_rpqtCCRmSfiOKcgpHo1-60">
          <mxGeometry width="50" height="50" relative="1" as="geometry">
            <mxPoint x="378" y="320" as="sourcePoint" />
            <mxPoint x="378" as="targetPoint" />
          </mxGeometry>
        </mxCell>
        <mxCell id="_rpqtCCRmSfiOKcgpHo1-12" value="" style="endArrow=classic;html=1;rounded=0;" edge="1" parent="_rpqtCCRmSfiOKcgpHo1-60">
          <mxGeometry width="50" height="50" relative="1" as="geometry">
            <mxPoint x="140" y="160" as="sourcePoint" />
            <mxPoint x="540" y="160" as="targetPoint" />
          </mxGeometry>
        </mxCell>
        <mxCell id="_rpqtCCRmSfiOKcgpHo1-16" value="" style="endArrow=classic;html=1;rounded=0;" edge="1" parent="_rpqtCCRmSfiOKcgpHo1-60">
          <mxGeometry width="50" height="50" relative="1" as="geometry">
            <mxPoint x="138" y="241" as="sourcePoint" />
            <mxPoint x="540" y="240" as="targetPoint" />
          </mxGeometry>
        </mxCell>
        <mxCell id="_rpqtCCRmSfiOKcgpHo1-17" value="Read ADC Data into buffer" style="text;strokeColor=none;align=center;fillColor=none;html=1;verticalAlign=middle;whiteSpace=wrap;rounded=0;" vertex="1" parent="_rpqtCCRmSfiOKcgpHo1-60">
          <mxGeometry y="130" width="130" height="30" as="geometry" />
        </mxCell>
        <mxCell id="_rpqtCCRmSfiOKcgpHo1-18" value="Background task" style="text;strokeColor=none;align=center;fillColor=none;html=1;verticalAlign=middle;whiteSpace=wrap;rounded=0;" vertex="1" parent="_rpqtCCRmSfiOKcgpHo1-60">
          <mxGeometry y="210" width="130" height="30" as="geometry" />
        </mxCell>
        <mxCell id="_rpqtCCRmSfiOKcgpHo1-40" value="" style="group" vertex="1" connectable="0" parent="_rpqtCCRmSfiOKcgpHo1-60">
          <mxGeometry x="143" y="60" width="117" height="180" as="geometry" />
        </mxCell>
        <mxCell id="_rpqtCCRmSfiOKcgpHo1-15" value="" style="rounded=0;whiteSpace=wrap;html=1;fillColor=#BDBDBD;strokeColor=#34373B;" vertex="1" parent="_rpqtCCRmSfiOKcgpHo1-40">
          <mxGeometry x="51" y="160" width="66" height="20" as="geometry" />
        </mxCell>
        <mxCell id="_rpqtCCRmSfiOKcgpHo1-38" value="" style="group" vertex="1" connectable="0" parent="_rpqtCCRmSfiOKcgpHo1-40">
          <mxGeometry width="51" height="100" as="geometry" />
        </mxCell>
        <mxCell id="_rpqtCCRmSfiOKcgpHo1-9" value="" style="rounded=0;whiteSpace=wrap;html=1;fillColor=#BDBDBD;strokeColor=#34373B;" vertex="1" parent="_rpqtCCRmSfiOKcgpHo1-38">
          <mxGeometry width="17" height="20" as="geometry" />
        </mxCell>
        <mxCell id="_rpqtCCRmSfiOKcgpHo1-13" value="" style="rounded=0;whiteSpace=wrap;html=1;fillColor=#BDBDBD;strokeColor=#34373B;" vertex="1" parent="_rpqtCCRmSfiOKcgpHo1-38">
          <mxGeometry x="17" y="80" width="17" height="20" as="geometry" />
        </mxCell>
        <mxCell id="_rpqtCCRmSfiOKcgpHo1-14" value="" style="rounded=0;whiteSpace=wrap;html=1;fillColor=#BDBDBD;strokeColor=#34373B;" vertex="1" parent="_rpqtCCRmSfiOKcgpHo1-38">
          <mxGeometry x="34" width="17" height="20" as="geometry" />
        </mxCell>
        <mxCell id="_rpqtCCRmSfiOKcgpHo1-19" value="" style="endArrow=classic;html=1;rounded=0;exitX=1;exitY=1;exitDx=0;exitDy=0;entryX=0;entryY=0;entryDx=0;entryDy=0;" edge="1" parent="_rpqtCCRmSfiOKcgpHo1-38" source="_rpqtCCRmSfiOKcgpHo1-9" target="_rpqtCCRmSfiOKcgpHo1-13">
          <mxGeometry width="50" height="50" relative="1" as="geometry">
            <mxPoint x="197" y="310" as="sourcePoint" />
            <mxPoint x="247" y="260" as="targetPoint" />
          </mxGeometry>
        </mxCell>
        <mxCell id="_rpqtCCRmSfiOKcgpHo1-20" value="" style="endArrow=classic;html=1;rounded=0;entryX=0;entryY=1;entryDx=0;entryDy=0;" edge="1" parent="_rpqtCCRmSfiOKcgpHo1-38" target="_rpqtCCRmSfiOKcgpHo1-14">
          <mxGeometry width="50" height="50" relative="1" as="geometry">
            <mxPoint x="34" y="80" as="sourcePoint" />
            <mxPoint x="27" y="90" as="targetPoint" />
          </mxGeometry>
        </mxCell>
        <mxCell id="_rpqtCCRmSfiOKcgpHo1-39" value="" style="endArrow=classic;html=1;rounded=0;exitX=1;exitY=1;exitDx=0;exitDy=0;entryX=0;entryY=0;entryDx=0;entryDy=0;" edge="1" parent="_rpqtCCRmSfiOKcgpHo1-40" source="_rpqtCCRmSfiOKcgpHo1-14" target="_rpqtCCRmSfiOKcgpHo1-15">
          <mxGeometry width="50" height="50" relative="1" as="geometry">
            <mxPoint x="197" y="310" as="sourcePoint" />
            <mxPoint x="247" y="260" as="targetPoint" />
          </mxGeometry>
        </mxCell>
        <mxCell id="_rpqtCCRmSfiOKcgpHo1-41" value="" style="group" vertex="1" connectable="0" parent="_rpqtCCRmSfiOKcgpHo1-60">
          <mxGeometry x="262" y="60" width="117" height="180" as="geometry" />
        </mxCell>
        <mxCell id="_rpqtCCRmSfiOKcgpHo1-42" value="" style="rounded=0;whiteSpace=wrap;html=1;fillColor=#BDBDBD;strokeColor=#34373B;" vertex="1" parent="_rpqtCCRmSfiOKcgpHo1-41">
          <mxGeometry x="51" y="160" width="66" height="20" as="geometry" />
        </mxCell>
        <mxCell id="_rpqtCCRmSfiOKcgpHo1-43" value="" style="group" vertex="1" connectable="0" parent="_rpqtCCRmSfiOKcgpHo1-41">
          <mxGeometry width="51" height="100" as="geometry" />
        </mxCell>
        <mxCell id="_rpqtCCRmSfiOKcgpHo1-44" value="" style="rounded=0;whiteSpace=wrap;html=1;fillColor=#BDBDBD;strokeColor=#34373B;" vertex="1" parent="_rpqtCCRmSfiOKcgpHo1-43">
          <mxGeometry width="17" height="20" as="geometry" />
        </mxCell>
        <mxCell id="_rpqtCCRmSfiOKcgpHo1-45" value="" style="rounded=0;whiteSpace=wrap;html=1;fillColor=#BDBDBD;strokeColor=#34373B;" vertex="1" parent="_rpqtCCRmSfiOKcgpHo1-43">
          <mxGeometry x="17" y="80" width="17" height="20" as="geometry" />
        </mxCell>
        <mxCell id="_rpqtCCRmSfiOKcgpHo1-46" value="" style="rounded=0;whiteSpace=wrap;html=1;fillColor=#BDBDBD;strokeColor=#34373B;" vertex="1" parent="_rpqtCCRmSfiOKcgpHo1-43">
          <mxGeometry x="34" width="17" height="20" as="geometry" />
        </mxCell>
        <mxCell id="_rpqtCCRmSfiOKcgpHo1-47" value="" style="endArrow=classic;html=1;rounded=0;exitX=1;exitY=1;exitDx=0;exitDy=0;entryX=0;entryY=0;entryDx=0;entryDy=0;" edge="1" parent="_rpqtCCRmSfiOKcgpHo1-43" source="_rpqtCCRmSfiOKcgpHo1-44" target="_rpqtCCRmSfiOKcgpHo1-45">
          <mxGeometry width="50" height="50" relative="1" as="geometry">
            <mxPoint x="197" y="310" as="sourcePoint" />
            <mxPoint x="247" y="260" as="targetPoint" />
          </mxGeometry>
        </mxCell>
        <mxCell id="_rpqtCCRmSfiOKcgpHo1-48" value="" style="endArrow=classic;html=1;rounded=0;entryX=0;entryY=1;entryDx=0;entryDy=0;" edge="1" parent="_rpqtCCRmSfiOKcgpHo1-43" target="_rpqtCCRmSfiOKcgpHo1-46">
          <mxGeometry width="50" height="50" relative="1" as="geometry">
            <mxPoint x="34" y="80" as="sourcePoint" />
            <mxPoint x="27" y="90" as="targetPoint" />
          </mxGeometry>
        </mxCell>
        <mxCell id="_rpqtCCRmSfiOKcgpHo1-49" value="" style="endArrow=classic;html=1;rounded=0;exitX=1;exitY=1;exitDx=0;exitDy=0;entryX=0;entryY=0;entryDx=0;entryDy=0;" edge="1" parent="_rpqtCCRmSfiOKcgpHo1-41" source="_rpqtCCRmSfiOKcgpHo1-46" target="_rpqtCCRmSfiOKcgpHo1-42">
          <mxGeometry width="50" height="50" relative="1" as="geometry">
            <mxPoint x="197" y="310" as="sourcePoint" />
            <mxPoint x="247" y="260" as="targetPoint" />
          </mxGeometry>
        </mxCell>
        <mxCell id="_rpqtCCRmSfiOKcgpHo1-51" value="" style="group" vertex="1" connectable="0" parent="_rpqtCCRmSfiOKcgpHo1-60">
          <mxGeometry x="382" y="60" width="117" height="180" as="geometry" />
        </mxCell>
        <mxCell id="_rpqtCCRmSfiOKcgpHo1-52" value="" style="rounded=0;whiteSpace=wrap;html=1;fillColor=#BDBDBD;strokeColor=#34373B;" vertex="1" parent="_rpqtCCRmSfiOKcgpHo1-51">
          <mxGeometry x="51" y="160" width="66" height="20" as="geometry" />
        </mxCell>
        <mxCell id="_rpqtCCRmSfiOKcgpHo1-53" value="" style="group" vertex="1" connectable="0" parent="_rpqtCCRmSfiOKcgpHo1-51">
          <mxGeometry width="51" height="100" as="geometry" />
        </mxCell>
        <mxCell id="_rpqtCCRmSfiOKcgpHo1-54" value="" style="rounded=0;whiteSpace=wrap;html=1;fillColor=#BDBDBD;strokeColor=#34373B;" vertex="1" parent="_rpqtCCRmSfiOKcgpHo1-53">
          <mxGeometry width="17" height="20" as="geometry" />
        </mxCell>
        <mxCell id="_rpqtCCRmSfiOKcgpHo1-55" value="" style="rounded=0;whiteSpace=wrap;html=1;fillColor=#BDBDBD;strokeColor=#34373B;" vertex="1" parent="_rpqtCCRmSfiOKcgpHo1-53">
          <mxGeometry x="17" y="80" width="17" height="20" as="geometry" />
        </mxCell>
        <mxCell id="_rpqtCCRmSfiOKcgpHo1-56" value="" style="rounded=0;whiteSpace=wrap;html=1;fillColor=#BDBDBD;strokeColor=#34373B;" vertex="1" parent="_rpqtCCRmSfiOKcgpHo1-53">
          <mxGeometry x="34" width="17" height="20" as="geometry" />
        </mxCell>
        <mxCell id="_rpqtCCRmSfiOKcgpHo1-57" value="" style="endArrow=classic;html=1;rounded=0;exitX=1;exitY=1;exitDx=0;exitDy=0;entryX=0;entryY=0;entryDx=0;entryDy=0;" edge="1" parent="_rpqtCCRmSfiOKcgpHo1-53" source="_rpqtCCRmSfiOKcgpHo1-54" target="_rpqtCCRmSfiOKcgpHo1-55">
          <mxGeometry width="50" height="50" relative="1" as="geometry">
            <mxPoint x="197" y="310" as="sourcePoint" />
            <mxPoint x="247" y="260" as="targetPoint" />
          </mxGeometry>
        </mxCell>
        <mxCell id="_rpqtCCRmSfiOKcgpHo1-58" value="" style="endArrow=classic;html=1;rounded=0;entryX=0;entryY=1;entryDx=0;entryDy=0;" edge="1" parent="_rpqtCCRmSfiOKcgpHo1-53" target="_rpqtCCRmSfiOKcgpHo1-56">
          <mxGeometry width="50" height="50" relative="1" as="geometry">
            <mxPoint x="34" y="80" as="sourcePoint" />
            <mxPoint x="27" y="90" as="targetPoint" />
          </mxGeometry>
        </mxCell>
        <mxCell id="_rpqtCCRmSfiOKcgpHo1-59" value="" style="endArrow=classic;html=1;rounded=0;exitX=1;exitY=1;exitDx=0;exitDy=0;entryX=0;entryY=0;entryDx=0;entryDy=0;" edge="1" parent="_rpqtCCRmSfiOKcgpHo1-51" source="_rpqtCCRmSfiOKcgpHo1-56" target="_rpqtCCRmSfiOKcgpHo1-52">
          <mxGeometry width="50" height="50" relative="1" as="geometry">
            <mxPoint x="197" y="310" as="sourcePoint" />
            <mxPoint x="247" y="260" as="targetPoint" />
          </mxGeometry>
        </mxCell>
      </root>
    </mxGraphModel>
  </diagram>
</mxfile>
